# xmcd
#
# Track frame offsets: 
#        150
#        16740
#        35802
#        50676
#        69334
#        91884
#        104803
#        120606
#        150430
#        176281
#
# Disc length: 3457 seconds
#
# Revision: 0
# Processed by: cddbd v1.5.2PL0 Copyright (c) Steve Scherf et al.
# Submitted via: ExactAudioCopyFreeDBPlugin 1.0
#
DISCID=7a0d7f0a
DTITLE=Lazer Lloyd - My Own Blues
DYEAR=2012
DGENRE=Blues
TTITLE0=Keep Movin
TTITLE1=Good Man Down
TTITLE2=My Own Blues
TTITLE3=By Your Side
TTITLE4=Blues In Tel Aviv
TTITLE5=Preaching
TTITLE6=War
TTITLE7=Rolling
TTITLE8=Friday Night
TTITLE9=The Hope
EXTD=
EXTT0=
EXTT1=
EXTT2=
EXTT3=
EXTT4=
EXTT5=
EXTT6=
EXTT7=
EXTT8=
EXTT9=
PLAYORDER=
